<svg version="1.2" xmlns="http://www.w3.org/2000/svg" viewBox="0 0 126 126" width="64" height="64">
	<title>explosion-svg</title>
	<style>
		.s0 { fill: #fff } 
	</style>
	<g id="Layer">
		<path id="Layer" class="s0" d="m48.5 3.5q2.5-0.3 4.5 1 3.5 18.1 8 36 16.9-10.1 33.5-20.5 6.3-1.8 4.5 4.5-10.6 18.8-20.5 38 21.2 6.6 43 11.5 3 1 4 4-3.8 3.6-9 5-18.9 6.5-37.5 13.5 3.3 11.4 8.5 22.5-1.3 2.5-4 3.5-19.8-7-39-15.5-2.1-1.4-2-4 1.1-4.7 1-9.5 7 2.3 14 3.5-4.9-4.7-9-10 10.2-3 20-7-9.2-1-18-3.5 4.5-7.2 9.5-14 1-1 0-2-6.5 5.8-13.5 11-1.1-7.5-2.5-15-2.9 8.8-7 17-5-4-10-8 1.2 5.5 3.5 11-6.5 3.7-14 2.5-9.5-19.9-16-41 0.4-4.7 5-3 11.1 6.8 23 11 9.8-21.4 20-42.5z"/>
	</g>
</svg>