<svg version="1.2" xmlns="http://www.w3.org/2000/svg" viewBox="0 0 26 26" width="64" height="64">
	<path id="Layer" fill-rule="evenodd" class="s0" d="m5.1 11.1l9.4 9.5c-1.1 0-2.3-0.3-3.4-0.7-0.4-0.1-2.2-0.4-2.9 0.3-1.5 1.6-2.9 3.6-3.7 4.4-0.8 0.8-1.9 0.5-2.8-0.6-1.1-1-1.4-2.1-0.6-2.8 0.8-0.8 2.8-2.2 4.4-3.8 0.7-0.7 0.3-2.6 0.3-2.9-0.5-1.1-0.7-2.2-0.7-3.4zm16.3 6.6c-1.4 1.5-3 2.3-4.8 2.7l-11.3-11.3c0.4-1.8 1.2-3.5 2.6-4.8 3.7-3.8 9.8-5.5 14.3-0.8 4.6 4.5 3 10.5-0.8 14.2zm-9.3-9.4c0.1 0.3 0.3 0.6 0.7 0.6 0.3-0.1 0.5-0.3 0.7-0.5 1.3-1.3 2.7-2.7 4-3.9 1.2 1.2 2.5 2.6 3.9 3.9 0.2 0.2 0.4 0.4 0.6 0.5 0.5 0 0.8-0.4 0.8-0.8 0-0.3-0.3-0.5-0.6-0.7-1.3-1.4-2.5-2.7-4-4-0.2-0.2-0.4-0.6-0.9-0.5-0.3 0.1-0.5 0.4-0.8 0.6-0.6 0.6-1.2 1.2-1.8 1.8-0.7 0.7-1.2 1.2-1.9 1.9-0.3 0.3-0.6 0.5-0.7 0.9zm10.7 4.6c0-0.3-0.3-0.6-0.5-0.8-1.4-1.3-2.7-2.6-4-4-0.3-0.2-0.5-0.6-1-0.5-0.2 0-0.5 0.3-0.7 0.5-1.3 1.3-2.5 2.5-3.8 3.8-0.3 0.2-0.6 0.5-0.7 0.9v0.2c0.1 0.3 0.3 0.6 0.6 0.5 0.3 0 0.5-0.2 0.7-0.4 1.3-1.3 2.8-2.6 4-3.9 1.3 1.2 2.7 2.6 4 3.9 0.2 0.2 0.4 0.4 0.7 0.4 0.4 0.1 0.7-0.3 0.7-0.6z"/>
</svg>