<svg fill="#cb032c" version="1.2" xmlns="http://www.w3.org/2000/svg" viewBox="0 0 209 209" width="64" height="64"><style></style><path fill-rule="evenodd" d="m13 10.9c42.7 1.3 90.6-2.6 130 2-0.9 13.3 6.8 47-4 49-13.2 2.4-6.4-26-8-38-32.3-2.3-69-0.3-103-1 17.6 10 37 18.3 56 27q0 56.5 0 113c13.7 2.3 31.6 0.3 47 1 2-12.5-5.1-38.1 6-39 12.4-1 6.8 37.5 5 49-15.6 4.4-39.2 0.8-58 2q0 13.5 0 27c-24.2-10.2-42.9-25.8-74-29-4-49.1-2-109.3-1-160 2-0.3 2-2.7 4-3z"/><path fill-rule="evenodd" d="m168 58.9c10.7 11.2 21 23 32 34-10.7 10.3-21.4 25.9-32 33q0-9 0-18c-16.4-2.3-37-0.4-55-1q0-14 0-28 27.5 0 55 0 0-10 0-20z"/></svg>