<svg  version="1.1" id="Layer_1" xmlns="http://www.w3.org/2000/svg" xmlns:xlink="http://www.w3.org/1999/xlink" width="500" height="500" viewBox="0 0 500 500"
	 overflow="visible" enable-background="new 0 0 500 500" xml:space="preserve">
<path fill="#FFFFFF" d="M250,0C111.929,0,0,111.929,0,250s111.929,250,250,250s250-111.929,250-250S388.071,0,250,0z
	 M225.377,342.763c0,11.643-9.439,21.082-21.083,21.082h-37.245c-11.643,0-21.083-9.439-21.083-21.082V157.238
	c0-11.644,9.439-21.083,21.083-21.083h37.245c11.644,0,21.083,9.439,21.083,21.083V342.763z M354.033,342.763
	c0,11.643-9.438,21.082-21.082,21.082h-37.245c-11.644,0-21.082-9.439-21.082-21.082V157.238c0-11.644,9.438-21.083,21.082-21.083
	h37.245c11.644,0,21.082,9.439,21.082,21.083V342.763z"/>
</svg>
