<svg version="1.2" xmlns="http://www.w3.org/2000/svg" viewBox="0 0 122 122" width="64" height="64">
	<title>speed-svg</title>
	<style>
		.s0 { fill: #fff } 
	</style>
	<g id="Layer">
		<path id="Layer" fill-rule="evenodd" class="s0" d="m49.5 19.5q1.5 4.5 6 6 0.2 2.5-0.5 5-3.3 3.3-6.5 6.5-3 0.7-6 0.5-1.5-4.5-6-6-3-4-7-7-6.7 6-13 12.5-3 1-6 0-3.3-3.3-6.5-6.5-1-2.5 0-5 11.3-11.3 22.5-22.5 3-1 6 0 8.3 8.6 17 16.5z"/>
	</g>
	<g id="Layer">
		<path id="Layer" fill-rule="evenodd" class="s0" d="m27.5 4.5q2.1-0.2 4 0.5 10.8 10.8 21.5 21.5 1 1.5 0 3-2.8 2.8-5.5 5.5-2 1-4 0-6.8-7-14-13.5-7.2 6.5-14 13.5-2 1-4 0-2.8-2.8-5.5-5.5-1-1.5 0-3 11.1-10.8 21.5-22z"/>
	</g>
	<g id="Layer">
		<path id="Layer" fill-rule="evenodd" class="s0" d="m21.5 61.5q1.9-4.4 6-7 2.9 8.8 7.5 17 3.3 8.8-1.5 17-8.2 7.4-15 16 2.3 2.5 4 5.5 2.3 1.8 5 1 8.2-9.7 19-16 5.5-1 11 0 7.7 3.1 15 7 2.6 1.2 5-0.5-17.5-18-35-36 4.9 0.4 9-2 16.9 16.2 33.5 33 9.5-9.5 19-19 18.4-30-8.5-52.5-20.3-11.2-40 0.5-4.5-1.5-6-6 34.3-19.8 61.5 9 17.8 28.8-2 56-11.5 9.7-21.5 21-9.1 7-20 3.5-5.7-2.6-11-6-4-1-8 0-8.5 6.9-16 15-5.3 2.3-11 1-8.7-5-11-14.5 0.3-3.1 1.5-6 8.5-8 16-17 1-3 0-6-3.7-6.9-6.5-14z"/>
	</g>
	<g id="Layer">
		<path id="Layer" fill-rule="evenodd" class="s0" d="m34.5 33.5q2.5 3.5 6 6 8 6.7 14.5 15 0.8 5.4-3.5 9-4.1 2.4-9 2-6.2-5.4-12-11.5-1.6-0.7-3 0.5-4.1 2.6-6 7-8.7 10.3-16.5-1-2-2.8-1-6 11.1-13.9 25.5-24 3.1 0.7 5 3z"/>
	</g>
	<g id="Layer">
		<path id="Layer" fill-rule="evenodd" class="s0" d="m36.5 31.5q4.5 1.5 6 6-1.5 0.5-2 2-3.5-2.5-6-6 1.5-0.5 2-2z"/>
	</g>
	<g id="Layer">
		<path id="Layer" fill-rule="evenodd" class="s0" d="m27.5 33.5q2.1-0.2 4 0.5 10.8 10.8 21.5 21.5 1 1.5 0 3-2.8 2.8-5.5 5.5-2 1-4 0-6.8-7-14-13.5-7.2 6.5-14 13.5-2 1-4 0-2.8-2.8-5.5-5.5-1-1.5 0-3 11.1-10.8 21.5-22z"/>
	</g>
</svg>