<svg version="1.2" xmlns="http://www.w3.org/2000/svg" viewBox="0 0 134 134" width="64" height="64">
	<title>defence-svg</title>
	<style>
		.s0 { fill: #fff } 
	</style>
	<g id="Layer">
		<path id="Layer" fill-rule="evenodd" class="s0" d="m65.5 1.5q28.2 12.4 59 13 0.7 20.7-3 41-2.5 0-5 0 3.1-18.4 3-37-27.6 0-53-11-25.4 11-53 11-2.1 50.3 29.5 89 7.9 7.9 17.5 13.5 3.6 2.8 8 2 29.8-16.3 41.5-48.5 2.5-1.4 5.5-1-12 38.9-49 56-33.7-15.5-47.5-50-12.1-31.4-10.5-65 30.1-0.3 57-13z"/>
	</g>
	<g id="Layer">
		<path id="Layer" fill-rule="evenodd" class="s0" d="m61.5 16.5q4.8 0.3 3 4.5-5.7 0.7-3-4.5z"/>
	</g>
	<g id="Layer">
		<path id="Layer" fill-rule="evenodd" class="s0" d="m68.5 16.5q5.1-0.2 4 5-6.1 0.3-4-5z"/>
	</g>
	<g id="Layer">
		<path id="Layer" fill-rule="evenodd" class="s0" d="m53.5 19.5q5.5-0.2 3 4.5-5.7 0.7-3-4.5z"/>
	</g>
	<g id="Layer">
		<path id="Layer" fill-rule="evenodd" class="s0" d="m76.5 19.5q2 0 4 0 0.4 3.7-3 5-3.3-1.9-1-5z"/>
	</g>
	<g id="Layer">
		<path id="Layer" fill-rule="evenodd" class="s0" d="m45.5 21.5q5.5-0.2 3 4.5-5.7 0.7-3-4.5z"/>
	</g>
	<g id="Layer">
		<path id="Layer" fill-rule="evenodd" class="s0" d="m84.5 21.5q5.5-0.2 3 4.5-5.7 0.7-3-4.5z"/>
	</g>
	<g id="Layer">
		<path id="Layer" fill-rule="evenodd" class="s0" d="m37.5 23.5q2 0 4 0 0.7 3.7-2.5 5-3.9-1.5-1.5-5z"/>
	</g>
	<g id="Layer">
		<path id="Layer" fill-rule="evenodd" class="s0" d="m91.5 23.5q5.9-1.1 4 4-5.1 1.9-4-4z"/>
	</g>
	<g id="Layer">
		<path id="Layer" fill-rule="evenodd" class="s0" d="m29.5 24.5q5.5-0.2 3 4.5-5.7 0.7-3-4.5z"/>
	</g>
	<g id="Layer">
		<path id="Layer" fill-rule="evenodd" class="s0" d="m100.5 24.5q5.5-0.2 3 4.5-5.7 0.7-3-4.5z"/>
	</g>
	<g id="Layer">
		<path id="Layer" fill-rule="evenodd" class="s0" d="m20.5 25.5q6.3-1 4 4.5-1.9 0.7-4 0.5 0-2.5 0-5z"/>
	</g>
	<g id="Layer">
		<path id="Layer" fill-rule="evenodd" class="s0" d="m108.5 25.5q2 0 4 0 0 2.5 0 5-6.7 0.9-4-5z"/>
	</g>
	<g id="Layer">
		<path id="Layer" fill-rule="evenodd" class="s0" d="m21.5 33.5q4.5 0.4 4 5-6.7 0.9-4-5z"/>
	</g>
	<g id="Layer">
		<path id="Layer" fill-rule="evenodd" class="s0" d="m108.5 33.5q4.9 0.3 3 4.5-1.9 0.7-4 0.5-0.2-2.7 1-5z"/>
	</g>
	<g id="Layer">
		<path id="Layer" fill-rule="evenodd" class="s0" d="m22.5 42.5q5.5-0.2 3 4.5-5.7 0.7-3-4.5z"/>
	</g>
	<g id="Layer">
		<path id="Layer" fill-rule="evenodd" class="s0" d="m106.5 42.5q2.5 0 5 0 1.1 5.9-4 4-1.4-1.8-1-4z"/>
	</g>
	<g id="Layer">
		<path id="Layer" fill-rule="evenodd" class="s0" d="m99.5 48.5q2-0.3 3.5 1 0.7 4 0.5 8 12 0 24 0 0 7 0 14-12 0-24 0 0.2 4-0.5 8-1.6 1.5-3.5 0.5-7.9-7.1-14-15.5 6.4-8.4 14-16zm-9 16q4 4.7 8.5 9 0.7-3 0.5-6 12.5 0 25 0 0-3 0-6-12.5 0-25 0 0.4-3.4-1-6-4 4.5-8 9z"/>
	</g>
	<g id="Layer">
		<path id="Layer" fill-rule="evenodd" class="s0" d="m23.5 50.5q5.5-0.2 3 4.5-5.7 0.7-3-4.5z"/>
	</g>
	<g id="Layer">
		<path id="Layer" fill-rule="evenodd" class="s0" d="m105.5 50.5q7.6 0.7 2 5-2.6-1.8-2-5z"/>
	</g>
	<g id="Layer">
		<path id="Layer" fill-rule="evenodd" class="s0" d="m25.5 58.5q5.5-0.2 3 4.5-5.7 0.7-3-4.5z"/>
	</g>
	<g id="Layer">
		<path id="Layer" fill-rule="evenodd" class="s0" d="m28.5 66.5q8.3 4-1 5-0.2-2.7 1-5z"/>
	</g>
	<g id="Layer">
		<path id="Layer" fill-rule="evenodd" class="s0" d="m31.5 74.5q5.5-0.2 3 4.5-5.7 0.7-3-4.5z"/>
	</g>
	<g id="Layer">
		<path id="Layer" fill-rule="evenodd" class="s0" d="m36.5 81.5q5.5 2.6 0.5 6-4.7-2.8-0.5-6z"/>
	</g>
	<g id="Layer">
		<path id="Layer" fill-rule="evenodd" class="s0" d="m93.5 81.5q2 0 4 0 0.6 3.2-2 5-2.6-1.8-2-5z"/>
	</g>
	<g id="Layer">
		<path id="Layer" fill-rule="evenodd" class="s0" d="m40.5 88.5q5.6 2.3 0.5 6-4.3-2.5-0.5-6z"/>
	</g>
	<g id="Layer">
		<path id="Layer" fill-rule="evenodd" class="s0" d="m88.5 88.5q5.5-1.1 4.5 4-5.5 2.3-4.5-4z"/>
	</g>
	<g id="Layer">
		<path id="Layer" fill-rule="evenodd" class="s0" d="m85.5 94.5q5.7 4.2-2 5-0.2-3.1 2-5z"/>
	</g>
	<g id="Layer">
		<path id="Layer" fill-rule="evenodd" class="s0" d="m45.5 95.5q5.5-0.2 3 4.5-5.7 0.7-3-4.5z"/>
	</g>
	<g id="Layer">
		<path id="Layer" fill-rule="evenodd" class="s0" d="m50.5 101.5q5.5-1.1 4.5 4-5.5 2.3-4.5-4z"/>
	</g>
	<g id="Layer">
		<path id="Layer" fill-rule="evenodd" class="s0" d="m77.5 101.5q3.2-0.6 5 2-1.8 2.6-5 2 0-2 0-4z"/>
	</g>
	<g id="Layer">
		<path id="Layer" fill-rule="evenodd" class="s0" d="m57.5 106.5q5.1-0.2 4 5-6.1 0.3-4-5z"/>
	</g>
	<g id="Layer">
		<path id="Layer" fill-rule="evenodd" class="s0" d="m71.5 106.5q5.3-0.5 4 4-6 1.9-4-4z"/>
	</g>
	<g id="Layer">
		<path id="Layer" fill-rule="evenodd" class="s0" d="m65.5 110.5q7 2.1 1 6-5.2-2.4-1-6z"/>
	</g>
</svg>